<svg width="2994" height="1840" viewBox="0 0 2994 1840" fill="none" xmlns="http://www.w3.org/2000/svg">
<path d="M117.424 1840C38.5571 1840 0 1803.2 0 1754.13C0 1710.32 35.0519 1664.76 98.1453 1664.76C180.517 1664.76 212.064 1754.13 268.147 1754.13C357.529 1754.13 397.839 1641.98 502.995 1300.27L718.564 594.057C723.822 573.029 722.069 555.505 692.275 555.505H581.861C555.572 555.505 562.583 525.714 588.872 525.714C676.501 525.714 741.347 516.952 762.379 452.114L772.894 415.314C846.503 187.505 963.927 17.5238 1191.76 17.5238C1368.78 17.5238 1480.94 117.41 1480.94 187.505C1480.94 233.067 1444.14 273.371 1396.82 273.371C1289.91 273.371 1239.08 73.6 1088.36 73.6C1032.28 73.6 1011.25 105.143 990.216 185.752C972.69 266.362 956.917 376.762 942.896 436.343L928.875 483.657C920.112 518.705 930.628 532.724 958.669 532.724C1288.16 532.724 1337.23 480.152 1398.57 480.152C1426.61 480.152 1428.36 501.181 1421.35 520.457L1188.26 1193.37C1151.45 1289.75 1151.45 1340.57 1190.01 1342.32C1237.33 1344.08 1303.93 1252.95 1407.33 1044.42C1417.85 1025.14 1423.11 1018.13 1433.62 1018.13C1444.14 1018.13 1449.4 1025.14 1438.88 1049.68C1356.51 1221.41 1233.83 1480.76 1084.86 1475.5C991.968 1472 969.185 1424.69 970.937 1366.86C972.69 1323.05 986.711 1277.49 1018.26 1188.11L1211.04 629.105C1223.31 592.305 1202.28 562.514 1163.72 562.514H948.154C925.37 562.514 900.834 573.029 892.071 604.571L687.017 1273.98C592.377 1585.9 371.55 1840 117.424 1840Z" fill="black"/>
<path d="M1672.4 1479.01C1533.94 1479.01 1409.51 1386.13 1409.51 1273.98C1409.51 1233.68 1435.8 1191.62 1483.12 1191.62C1526.93 1191.62 1549.72 1217.9 1560.23 1268.72C1574.25 1370.36 1639.1 1435.2 1710.96 1435.2C1791.58 1435.2 1821.37 1373.87 1821.37 1284.5C1821.37 1217.9 1789.82 1160.08 1744.26 1098.74L1698.69 1025.14C1633.84 928.762 1595.29 862.171 1595.29 774.552C1595.29 609.829 1737.25 495.924 1905.49 495.924C2049.21 495.924 2119.31 592.305 2119.31 660.648C2119.31 718.476 2087.76 744.762 2047.45 744.762C2010.65 744.762 1979.1 716.724 1970.34 667.657C1961.58 592.305 1924.77 541.486 1858.17 541.486C1786.32 541.486 1739 590.552 1739 681.676C1739 741.257 1770.54 800.838 1819.62 870.933L1863.43 942.781C1931.78 1044.42 1966.84 1112.76 1966.84 1196.88C1966.84 1356.34 1840.65 1479.01 1672.4 1479.01Z" fill="black"/>
<path d="M2430.79 234.819C2460.59 143.695 2465.85 98.1333 2392.24 98.1333C2350.17 98.1333 2325.64 101.638 2301.1 101.638C2285.33 101.638 2274.81 98.1333 2274.81 87.6191C2274.81 75.3523 2285.33 70.0953 2306.36 70.0953C2357.18 70.0953 2504.4 56.0762 2567.5 29.7905C2609.56 15.7714 2646.36 0 2669.15 0C2688.43 0 2690.18 8.7619 2681.41 31.5429C2620.07 192.762 2548.22 385.524 2499.14 523.962L2360.69 905.981C2351.93 930.514 2355.43 939.276 2365.95 939.276C2372.96 939.276 2381.72 932.267 2390.48 912.99C2506.16 692.19 2644.61 501.181 2802.34 501.181C2886.47 501.181 2930.28 553.752 2930.28 629.105C2930.28 736 2840.9 930.514 2732.24 1200.38C2693.68 1296.76 2691.93 1347.58 2730.49 1351.09C2777.81 1352.84 2847.91 1265.22 2956.57 1060.19C2967.09 1039.16 2974.1 1033.9 2982.86 1033.9C2995.13 1033.9 2998.63 1042.67 2986.37 1065.45C2900.49 1235.43 2769.04 1491.28 2620.07 1480.76C2527.19 1475.5 2506.16 1424.69 2509.66 1368.61C2513.17 1324.8 2527.19 1279.24 2562.24 1191.62C2655.13 958.552 2749.77 750.019 2749.77 681.676C2749.77 643.124 2737.5 625.6 2711.21 625.6C2600.8 625.6 2427.29 807.848 2297.6 1172.34C2253.78 1298.51 2273.06 1366.86 2264.3 1401.9C2259.04 1449.22 2199.45 1479.01 2145.12 1479.01C2071.51 1479.01 2025.94 1435.2 2071.51 1296.76L2430.79 234.819Z" fill="black"/>
</svg>
