<?xml version="1.0" encoding="UTF-8"?>
<svg id="Calque_1" data-name="Calque 1" xmlns="http://www.w3.org/2000/svg" viewBox="0 0 800.43 330.45">
  <g>
    <path d="M10.17,314.28c20.81,0,34.25-6.94,40.75-38.15L96.87,59.38c6.5-31.21-8.24-38.58-29.05-38.58v-4.77h127.45c58.96,0,73.26,40.32,65.9,74.13-6.07,29.05-32.51,57.66-76.3,65.46,58.96,5.2,76.73,44.22,68.5,84.54-9.54,43.35-48.55,79.33-114.88,79.33H10.17v-5.2ZM90.37,312.12h45.09c51.59,0,81.07-30.35,89.3-71.96,8.67-42.48-8.24-78.9-62.43-78.9h-61.13l-29.05,136.56c-1.73,7.37,1.73,14.31,18.21,14.31ZM165.8,153.45c37.28,0,61.99-32.08,68.06-63.29,6.07-31.65-2.17-66.76-45.95-66.76h-57.22l-27.75,130.06h62.86Z"/>
    <path d="M406.83,314.28c20.81,0,35.98-7.37,23.84-36.42l-44.22-103.61-80.63,99.28c-22.11,27.75-13.01,40.75,13.01,40.75v5.2h-96.24v-5.2c26.01,0,49.85-13.01,72.4-40.32l88-107.95-46.39-108.38c-12.57-29.05-25.58-36.85-45.95-36.85v-4.77h97.54v4.77c-20.81,0-35.98,7.8-23.84,36.85l40.75,95.81,75.87-91.91c22.54-27.31,13.87-40.75-12.14-40.75v-4.77h95.81v4.77c-26.01,0-49.85,13.44-72.83,40.75l-82.8,100.14,49.42,116.18c12.57,29.04,26.01,36.42,46.82,36.42v5.2h-98.41v-5.2Z"/>
  </g>
  <g>
    <path d="M591.21,61.51c2.34-26.84,25.32-48.17,52.43-48.17s45.83,21.33,43.49,48.17c-2.34,27.39-25.32,48.72-52.02,48.72s-46.24-21.33-43.9-48.72ZM635.39,107.48c25.32,0,46.65-20.09,48.86-45.96,2.2-25.46-15.55-45.42-40.87-45.42s-47.07,19.96-49.27,45.42c-2.2,25.87,15.41,45.96,41.29,45.96ZM623.28,75.14c1.93,0,2.89,1.65,2.89,3.17,0,1.93-1.38,2.61-1.38,4.82,0,3.44,2.89,6.06,7.57,6.06,8.12,0,14.73-6.33,16.38-14.17,2.06-9.77-3.3-15.96-12.52-15.69l.41-1.65c7.84-.41,13.62-3.72,15.28-11.29,1.51-7.16-2.34-11.15-7.16-11.15-4.54,0-9.5,3.17-12.39,9.36l-1.65-.41c3.03-7.43,9.5-12.66,17.06-12.39,6.19.28,11.15,5.92,9.5,13.62-1.24,5.5-6.33,10.46-11.97,11.83,5.92,1.65,11.28,7.43,9.22,16.93-2.34,11.29-13.07,16.93-21.61,16.93s-13.21-5.09-13.21-11.29c0-2.75,1.51-4.68,3.58-4.68Z"/>
    <path d="M697.32,61.51c2.34-26.84,25.32-48.17,52.43-48.17s45.83,21.33,43.49,48.17c-2.34,27.39-25.32,48.72-52.02,48.72s-46.24-21.33-43.9-48.72ZM741.49,107.48c25.32,0,46.65-20.09,48.86-45.96,2.2-25.46-15.55-45.42-40.87-45.42s-47.07,19.96-49.27,45.42c-2.2,25.87,15.41,45.96,41.29,45.96ZM729.38,75.14c1.93,0,2.89,1.65,2.89,3.17,0,1.93-1.38,2.61-1.38,4.82,0,3.44,2.89,6.06,7.57,6.06,8.12,0,14.73-6.33,16.38-14.17,2.06-9.77-3.3-15.96-12.52-15.69l.41-1.65c7.84-.41,13.62-3.72,15.28-11.29,1.51-7.16-2.34-11.15-7.16-11.15-4.54,0-9.5,3.17-12.39,9.36l-1.65-.41c3.03-7.43,9.5-12.66,17.06-12.39,6.19.28,11.15,5.92,9.5,13.62-1.24,5.5-6.33,10.46-11.97,11.83,5.92,1.65,11.28,7.43,9.22,16.93-2.34,11.29-13.07,16.93-21.61,16.93s-13.21-5.09-13.21-11.29c0-2.75,1.51-4.68,3.58-4.68Z"/>
  </g>
</svg>